<svg width="33" height="24" viewBox="0 0 33 24" fill="none" xmlns="http://www.w3.org/2000/svg">
<path fill-rule="evenodd" clip-rule="evenodd" d="M18.801 0.806929C19.1837 0.752256 19.5383 1.01819 19.593 1.4009C20.2601 6.07074 22.567 8.50399 25.0836 9.80286C27.6447 11.1247 30.4827 11.2999 32.2 11.2999C32.5866 11.2999 32.9 11.6133 32.9 11.9999C32.9 12.3865 32.5866 12.6999 32.2 12.6999C30.4827 12.6999 27.6447 12.8751 25.0836 14.1969C22.567 15.4958 20.2601 17.929 19.593 22.5989C19.5383 22.9816 19.1837 23.2475 18.801 23.1929C18.4183 23.1382 18.1524 22.7836 18.207 22.4009C18.9399 17.2707 21.533 14.454 24.4415 12.9529C24.6138 12.8639 24.7871 12.7797 24.9609 12.6999H0.7C0.313401 12.6999 0 12.3865 0 11.9999C0 11.6133 0.313401 11.2999 0.7 11.2999H24.9609C24.7871 11.2201 24.6138 11.1359 24.4415 11.0469C21.533 9.5458 18.9399 6.72905 18.207 1.59889C18.1524 1.21617 18.4183 0.861603 18.801 0.806929Z" fill="white"/>
</svg>
