<svg width="17" height="13" viewBox="0 0 17 13" fill="none" xmlns="http://www.w3.org/2000/svg">
<path fill-rule="evenodd" clip-rule="evenodd" d="M9.4005 0.941062C9.59186 0.913726 9.76915 1.04669 9.79648 1.23805C10.13 3.57297 11.2835 4.78959 12.5418 5.43903C13.8223 6.09996 15.2414 6.18754 16.1 6.18754C16.2933 6.18754 16.45 6.34424 16.45 6.53754C16.45 6.73084 16.2933 6.88754 16.1 6.88754C15.2414 6.88754 13.8223 6.97513 12.5418 7.63606C11.2835 8.2855 10.13 9.50212 9.79648 11.837C9.76915 12.0284 9.59186 12.1614 9.4005 12.134C9.20915 12.1067 9.07618 11.9294 9.10352 11.738C9.46996 9.17297 10.7665 7.76459 12.2207 7.01403C12.3069 6.96955 12.3935 6.92743 12.4804 6.88754H0.35C0.1567 6.88754 0 6.73084 0 6.53754C0 6.34424 0.1567 6.18754 0.35 6.18754H12.4804C12.3935 6.14766 12.3069 6.10554 12.2207 6.06106C10.7665 5.3105 9.46996 3.90212 9.10352 1.33704C9.07618 1.14569 9.20915 0.968399 9.4005 0.941062Z" fill="black" stroke="black" stroke-width="0.5" stroke-linecap="round" stroke-linejoin="round"/>
</svg>
