<svg width="17" height="13" viewBox="0 0 17 13" fill="none" xmlns="http://www.w3.org/2000/svg">
<path fill-rule="evenodd" clip-rule="evenodd" d="M9.4005 0.903465C9.59186 0.876128 9.76915 1.00909 9.79648 1.20045C10.13 3.53537 11.2835 4.752 12.5418 5.40143C13.8223 6.06236 15.2414 6.14995 16.1 6.14995C16.2933 6.14995 16.45 6.30665 16.45 6.49995C16.45 6.69325 16.2933 6.84995 16.1 6.84995C15.2414 6.84995 13.8223 6.93753 12.5418 7.59846C11.2835 8.2479 10.13 9.46452 9.79648 11.7994C9.76915 11.9908 9.59186 12.1238 9.4005 12.0964C9.20915 12.0691 9.07618 11.8918 9.10352 11.7004C9.46996 9.13537 10.7665 7.727 12.2207 6.97643C12.3069 6.93195 12.3935 6.88983 12.4804 6.84995H0.35C0.1567 6.84995 0 6.69325 0 6.49995C0 6.30665 0.1567 6.14995 0.35 6.14995H12.4804C12.3935 6.11006 12.3069 6.06794 12.2207 6.02346C10.7665 5.2729 9.46996 3.86452 9.10352 1.29944C9.07618 1.10809 9.20915 0.930801 9.4005 0.903465Z" fill="white" stroke="white" stroke-width="0.5" stroke-linecap="round" stroke-linejoin="round"/>
</svg>
